<?xml version="1.0" encoding="utf-8"?>
<!-- Generator: Adobe Illustrator 16.0.0, SVG Export Plug-In . SVG Version: 6.00 Build 0)  -->
<!DOCTYPE svg PUBLIC "-//W3C//DTD SVG 1.1//EN" "http://www.w3.org/Graphics/SVG/1.1/DTD/svg11.dtd">
<svg version="1.1" id="图层_1" xmlns="http://www.w3.org/2000/svg" xmlns:xlink="http://www.w3.org/1999/xlink" x="0px" y="0px"
	 width="384px" height="384px" viewBox="0 0 384 384" enable-background="new 0 0 384 384" xml:space="preserve">
<line fill="none" stroke="#C8C8C8" stroke-width="4" stroke-miterlimit="10" x1="118.808" y1="71.42" x2="319.486" y2="80.13"/>
<line fill="none" stroke="#C8C8C8" stroke-width="4" stroke-miterlimit="10" x1="319.486" y1="80.13" x2="262.924" y2="310.755"/>
<line fill="none" stroke="#C8C8C8" stroke-width="4" stroke-miterlimit="10" x1="118.808" y1="71.42" x2="62.244" y2="302.043"/>
<line fill="none" stroke="#C8C8C8" stroke-width="4" stroke-miterlimit="10" x1="62.244" y1="302.043" x2="262.924" y2="310.755"/>
<path fill="none" stroke="#000000" stroke-width="1.5" stroke-miterlimit="10" d="M258.184,172.298"/>
<line fill="none" stroke="#306480" stroke-width="3" stroke-miterlimit="10" x1="228.148" y1="170.995" x2="164.194" y2="168.219"/>
<line fill="none" stroke="#000000" stroke-width="3" stroke-miterlimit="10" x1="187.422" y1="151.216" x2="187.421" y2="151.215"/>
<line fill="none" stroke="#306480" stroke-width="3" stroke-miterlimit="10" x1="159.27" y1="122.393" x2="255.189" y2="126.557"/>
<line fill="none" stroke="#306480" stroke-width="3" stroke-miterlimit="10" x1="149.122" y1="163.768" x2="245.042" y2="167.931"/>
<line fill="none" stroke="#306480" stroke-width="3" stroke-miterlimit="10" x1="189.199" y1="263.938" x2="212.164" y2="170.301"/>
<line fill="none" stroke="#306480" stroke-width="3" stroke-miterlimit="10" x1="180.182" y1="168.913" x2="157.216" y2="262.551"/>
<path fill="none" stroke="#000000" stroke-width="3" stroke-miterlimit="10" d="M149.122,163.768"/>
<path fill="none" stroke="#000000" stroke-width="3" stroke-miterlimit="10" d="M159.27,122.393"/>
<path fill="none" stroke="#306480" stroke-width="3" stroke-miterlimit="10" d="M149.117,163.764
	c-0.902-6.642-0.547-13.647,1.219-20.851c1.763-7.185,4.805-14.056,8.895-20.466"/>
<path fill="none" stroke="#306480" stroke-width="3" stroke-miterlimit="10" d="M255.188,126.553
	c0.901,6.644,0.547,13.652-1.221,20.858c-1.763,7.185-4.803,14.057-8.894,20.466"/>
<path fill="none" stroke="#306480" stroke-width="4" stroke-miterlimit="10" d="M108.998,111.413
	c-6.989-1.846-12.818-6.805-14.297-12.832c-1.943-7.925,4.374-14.692,14.112-15.115c9.738-0.423,19.209,5.659,21.152,13.584
	c0.142,0.58,0.24,1.154,0.296,1.72"/>
<line fill="none" stroke="#C8C8C8" stroke-width="2" stroke-miterlimit="10" x1="337.848" y1="103.395" x2="261.4" y2="328.212"/>
<line fill="none" stroke="#C8C8C8" stroke-width="2" stroke-miterlimit="10" x1="62.244" y1="302.043" x2="261.4" y2="328.212"/>
<path fill="none" stroke="#306480" stroke-width="4" stroke-miterlimit="10" d="M87.938,197.781
	c-6.989-1.846-12.818-6.806-14.297-12.833c-1.943-7.925,4.374-14.692,14.112-15.115c9.738-0.423,19.209,5.659,21.152,13.584
	c0.142,0.58,0.24,1.154,0.296,1.72"/>
<path fill="none" stroke="#306480" stroke-width="4" stroke-miterlimit="10" d="M66.849,283.768
	c-6.989-1.847-12.818-6.807-14.297-12.832c-1.943-7.926,4.374-14.692,14.112-15.115c9.738-0.424,19.209,5.658,21.152,13.584
	c0.142,0.58,0.24,1.154,0.296,1.721"/>
</svg>
